<svg width="135" height="40" viewBox="0 0 135 40" fill="none" xmlns="http://www.w3.org/2000/svg">
<rect x="0.5" y="0.5" width="134" height="39" rx="3.5" fill="black"/>
<path d="M45.4148 8.71094V14.7H47.5771C49.3618 14.7 50.3953 13.6001 50.3953 11.6868C50.3953 9.80249 49.3535 8.71094 47.5771 8.71094H45.4148ZM46.3445 9.55762H47.4734C48.7144 9.55762 49.449 10.3462 49.449 11.6992C49.449 13.073 48.7268 13.8533 47.4734 13.8533H46.3445V9.55762Z" fill="white"/>
<path d="M53.5604 14.7871C54.8802 14.7871 55.6895 13.9031 55.6895 12.438C55.6895 10.9812 54.876 10.093 53.5604 10.093C52.2405 10.093 51.4271 10.9812 51.4271 12.438C51.4271 13.9031 52.2364 14.7871 53.5604 14.7871ZM53.5604 13.9944C52.7842 13.9944 52.3484 13.4258 52.3484 12.438C52.3484 11.4585 52.7842 10.8857 53.5604 10.8857C54.3323 10.8857 54.7723 11.4585 54.7723 12.438C54.7723 13.4216 54.3323 13.9944 53.5604 13.9944Z" fill="white"/>
<path d="M62.5816 10.1802H61.6893L60.8841 13.6292H60.8136L59.8839 10.1802H59.0289L58.0992 13.6292H58.0328L57.2235 10.1802H56.3187L57.5638 14.7H58.4811L59.4107 11.3713H59.4813L60.4151 14.7H61.3407L62.5816 10.1802Z" fill="white"/>
<path d="M63.6093 14.7H64.5016V12.0562C64.5016 11.3506 64.9208 10.9106 65.5807 10.9106C66.2406 10.9106 66.5561 11.2717 66.5561 11.998V14.7H67.4484V11.7739C67.4484 10.699 66.8922 10.093 65.8837 10.093C65.203 10.093 64.7548 10.396 64.5348 10.8982H64.4684V10.1802H63.6093V14.7Z" fill="white"/>
<path d="M68.8537 14.7H69.746V8.41626H68.8537V14.7Z" fill="white"/>
<path d="M73.1021 14.7871C74.4219 14.7871 75.2312 13.9031 75.2312 12.438C75.2312 10.9812 74.4177 10.093 73.1021 10.093C71.7822 10.093 70.9688 10.9812 70.9688 12.438C70.9688 13.9031 71.7781 14.7871 73.1021 14.7871ZM73.1021 13.9944C72.3259 13.9944 71.8901 13.4258 71.8901 12.438C71.8901 11.4585 72.3259 10.8857 73.1021 10.8857C73.874 10.8857 74.314 11.4585 74.314 12.438C74.314 13.4216 73.874 13.9944 73.1021 13.9944Z" fill="white"/>
<path d="M77.8899 14.0234C77.4043 14.0234 77.0516 13.7869 77.0516 13.3801C77.0516 12.9817 77.3338 12.77 77.9563 12.7285L79.0603 12.658V13.0356C79.0603 13.5959 78.5623 14.0234 77.8899 14.0234ZM77.6617 14.7747C78.2552 14.7747 78.7491 14.5173 79.0188 14.0649H79.0894V14.7H79.9485V11.6121C79.9485 10.6575 79.3094 10.093 78.1763 10.093C77.1512 10.093 76.4207 10.5911 76.3294 11.3672H77.1927C77.2923 11.0476 77.6368 10.865 78.1348 10.865C78.7449 10.865 79.0603 11.1348 79.0603 11.6121V12.0022L77.836 12.0728C76.761 12.1392 76.1551 12.6082 76.1551 13.4216C76.1551 14.2476 76.7901 14.7747 77.6617 14.7747Z" fill="white"/>
<path d="M82.9767 14.7747C83.5992 14.7747 84.1263 14.48 84.3961 13.9861H84.4666V14.7H85.3216V8.41626H84.4293V10.8982H84.3629C84.118 10.4001 83.5951 10.1055 82.9767 10.1055C81.8353 10.1055 81.1007 11.0103 81.1007 12.438C81.1007 13.8699 81.827 14.7747 82.9767 14.7747ZM83.2298 10.9065C83.9769 10.9065 84.4459 11.5 84.4459 12.4421C84.4459 13.3884 83.9811 13.9736 83.2298 13.9736C82.4745 13.9736 82.0221 13.3967 82.0221 12.438C82.0221 11.4875 82.4786 10.9065 83.2298 10.9065Z" fill="white"/>
<path d="M91.1081 14.7871C92.4279 14.7871 93.2373 13.9031 93.2373 12.438C93.2373 10.9812 92.4238 10.093 91.1081 10.093C89.7883 10.093 88.9748 10.9812 88.9748 12.438C88.9748 13.9031 89.7841 14.7871 91.1081 14.7871ZM91.1081 13.9944C90.332 13.9944 89.8962 13.4258 89.8962 12.438C89.8962 11.4585 90.332 10.8857 91.1081 10.8857C91.8801 10.8857 92.32 11.4585 92.32 12.438C92.32 13.4216 91.8801 13.9944 91.1081 13.9944Z" fill="white"/>
<path d="M94.4185 14.7H95.3108V12.0562C95.3108 11.3506 95.73 10.9106 96.3899 10.9106C97.0498 10.9106 97.3652 11.2717 97.3652 11.998V14.7H98.2576V11.7739C98.2576 10.699 97.7014 10.093 96.6929 10.093C96.0122 10.093 95.564 10.396 95.344 10.8982H95.2776V10.1802H94.4185V14.7Z" fill="white"/>
<path d="M102.367 9.05542V10.2009H101.649V10.9521H102.367V13.5046C102.367 14.3762 102.762 14.7249 103.754 14.7249C103.928 14.7249 104.094 14.7041 104.239 14.6792V13.9363C104.115 13.9487 104.036 13.957 103.899 13.957C103.455 13.957 103.26 13.7495 103.26 13.2764V10.9521H104.239V10.2009H103.26V9.05542H102.367Z" fill="white"/>
<path d="M105.437 14.7H106.329V12.0603C106.329 11.3755 106.736 10.9148 107.466 10.9148C108.097 10.9148 108.433 11.28 108.433 12.0022V14.7H109.326V11.7822C109.326 10.7073 108.732 10.0972 107.769 10.0972C107.089 10.0972 106.611 10.4001 106.392 10.9065H106.321V8.41626H105.437V14.7Z" fill="white"/>
<path d="M112.545 10.8525C113.205 10.8525 113.636 11.3132 113.657 12.0229H111.374C111.424 11.3174 111.885 10.8525 112.545 10.8525ZM113.653 13.4797C113.487 13.8325 113.118 14.0276 112.578 14.0276C111.864 14.0276 111.404 13.5254 111.374 12.7327V12.6829H114.566V12.3716C114.566 10.9521 113.807 10.093 112.549 10.093C111.275 10.093 110.466 11.0103 110.466 12.4546C110.466 13.8989 111.258 14.7871 112.553 14.7871C113.587 14.7871 114.309 14.2891 114.512 13.4797H113.653Z" fill="white"/>
<path d="M89.5257 19.214V21.5051H88.0896V23.0075H89.5257V28.1125C89.5257 29.8556 90.3143 30.5529 92.2981 30.5529C92.6468 30.5529 92.9788 30.5114 93.2693 30.4616V28.9758C93.0203 29.0007 92.8626 29.0173 92.5887 29.0173C91.7005 29.0173 91.3104 28.6022 91.3104 27.6559V23.0075H93.2693V21.5051H91.3104V19.214H89.5257Z" fill="white"/>
<path d="M98.3232 30.6774C100.963 30.6774 102.581 28.9094 102.581 25.9792C102.581 23.0656 100.955 21.2892 98.3232 21.2892C95.6835 21.2892 94.0566 23.0656 94.0566 25.9792C94.0566 28.9094 95.6752 30.6774 98.3232 30.6774ZM98.3232 29.092C96.7709 29.092 95.8994 27.9548 95.8994 25.9792C95.8994 24.0202 96.7709 22.8747 98.3232 22.8747C99.8671 22.8747 100.747 24.0202 100.747 25.9792C100.747 27.9465 99.8671 29.092 98.3232 29.092Z" fill="white"/>
<path d="M103.966 30.5031H105.751V25.1657C105.751 23.8957 106.706 23.0407 108.059 23.0407C108.374 23.0407 108.905 23.0988 109.055 23.1486V21.3888C108.864 21.339 108.524 21.3141 108.258 21.3141C107.079 21.3141 106.075 21.9616 105.817 22.8498H105.685V21.4636H103.966V30.5031Z" fill="white"/>
<path d="M113.486 22.8083C114.806 22.8083 115.669 23.7297 115.711 25.1491H111.145C111.245 23.738 112.166 22.8083 113.486 22.8083ZM115.702 28.0627C115.37 28.7682 114.632 29.1584 113.552 29.1584C112.125 29.1584 111.203 28.154 111.145 26.5685V26.4689H117.529V25.8464C117.529 23.0075 116.009 21.2892 113.494 21.2892C110.946 21.2892 109.327 23.1237 109.327 26.0124C109.327 28.9011 110.913 30.6774 113.503 30.6774C115.57 30.6774 117.014 29.6813 117.421 28.0627H115.702Z" fill="white"/>
<path d="M77.8221 27.1649C77.9598 29.3846 79.8095 30.8042 82.5626 30.8042C85.505 30.8042 87.3462 29.3158 87.3462 26.9413C87.3462 25.0743 86.2966 24.0419 83.7499 23.4482L82.382 23.1127C80.7645 22.7341 80.1106 22.2265 80.1106 21.3404C80.1106 20.2219 81.1259 19.4906 82.6487 19.4906C84.0941 19.4906 85.0921 20.2047 85.2727 21.349H87.1483C87.0365 19.2583 85.1953 17.7871 82.6745 17.7871C79.9644 17.7871 78.1576 19.2583 78.1576 21.4694C78.1576 23.2934 79.1815 24.3774 81.427 24.9022L83.0272 25.2894C84.6705 25.6765 85.3932 26.2444 85.3932 27.1908C85.3932 28.292 84.2575 29.0921 82.7089 29.0921C81.0484 29.0921 79.8955 28.3436 79.7321 27.1649H77.8221Z" fill="white"/>
<path d="M59.3348 21.3141C58.1063 21.3141 57.0437 21.9284 56.4959 22.9577H56.3631V21.4636H54.6448V33.508H56.4295V29.1335H56.5706C57.0437 30.0881 58.0647 30.6525 59.3514 30.6525C61.6341 30.6525 63.0867 28.8513 63.0867 25.9792C63.0867 23.1071 61.6341 21.3141 59.3348 21.3141ZM58.8284 29.0505C57.3343 29.0505 56.3963 27.8718 56.3963 25.9875C56.3963 24.0949 57.3343 22.9162 58.8367 22.9162C60.3475 22.9162 61.2522 24.07 61.2522 25.9792C61.2522 27.8967 60.3475 29.0505 58.8284 29.0505Z" fill="white"/>
<path d="M69.3316 21.3141C68.103 21.3141 67.0405 21.9284 66.4927 22.9577H66.3599V21.4636H64.6416V33.508H66.4263V29.1335H66.5674C67.0405 30.0881 68.0615 30.6525 69.3482 30.6525C71.6309 30.6525 73.0835 28.8513 73.0835 25.9792C73.0835 23.1071 71.6309 21.3141 69.3316 21.3141ZM68.8252 29.0505C67.3311 29.0505 66.3931 27.8718 66.3931 25.9875C66.3931 24.0949 67.3311 22.9162 68.8335 22.9162C70.3443 22.9162 71.249 24.07 71.249 25.9792C71.249 27.8967 70.3443 29.0505 68.8252 29.0505Z" fill="white"/>
<path d="M51.4428 30.5031H53.4905L49.008 18.0882H46.9346L42.4521 30.5031H44.431L45.5752 27.208H50.3072L51.4428 30.5031ZM47.8724 20.3424H48.0186L49.8168 25.5905H46.0656L47.8724 20.3424Z" fill="white"/>
<path d="M24.769 20.3008C24.7907 18.6198 25.6934 17.0292 27.1256 16.1488C26.2221 14.8584 24.7088 14.0403 23.1344 13.9911C21.4552 13.8148 19.8272 14.9959 18.9715 14.9959C18.0992 14.9959 16.7817 14.0086 15.363 14.0378C13.5137 14.0975 11.7898 15.1489 10.8901 16.7656C8.95607 20.1141 10.3987 25.0351 12.2513 27.7417C13.1782 29.0671 14.2615 30.5475 15.6789 30.495C17.066 30.4375 17.584 29.6105 19.2583 29.6105C20.9171 29.6105 21.4031 30.495 22.8493 30.4616C24.3377 30.4375 25.2754 29.1304 26.1698 27.7925C26.8358 26.8481 27.3483 25.8044 27.6882 24.7C25.9391 23.9602 24.771 22.2 24.769 20.3008Z" fill="white"/>
<path d="M22.0373 12.2111C22.8489 11.2369 23.2487 9.98469 23.1518 8.72046C21.912 8.85068 20.7668 9.44324 19.9443 10.3801C19.14 11.2954 18.7214 12.5255 18.8006 13.7415C20.0408 13.7542 21.2601 13.1777 22.0373 12.2111Z" fill="white"/>
<rect x="0.5" y="0.5" width="134" height="39" rx="3.5" stroke="#A6A6A6"/>
</svg>
