<svg width="64" height="64" viewBox="0 0 64 64" fill="none" xmlns="http://www.w3.org/2000/svg">
<path d="M31.7867 25.3333H37.12V17.3333H45.12V12H37.12V4H31.7867V12H23.7867V17.3333H31.7867V25.3333ZM21.12 49.3333C18.1867 49.3333 15.8133 51.7333 15.8133 54.6667C15.8133 57.6 18.1867 60 21.12 60C24.0533 60 26.4533 57.6 26.4533 54.6667C26.4533 51.7333 24.0533 49.3333 21.12 49.3333ZM47.7867 49.3333C44.8533 49.3333 42.48 51.7333 42.48 54.6667C42.48 57.6 44.8533 60 47.7867 60C50.72 60 53.12 57.6 53.12 54.6667C53.12 51.7333 50.72 49.3333 47.7867 49.3333ZM24.0533 36H43.92C45.92 36 47.68 34.9067 48.5867 33.2533L58.88 14.56L54.24 12L43.92 30.6667H25.2L13.84 6.66667H5.12V12H10.4533L20.0533 32.24L16.4533 38.7467C14.5067 42.32 17.0667 46.6667 21.12 46.6667H53.12V41.3333H21.12L24.0533 36Z" fill="#ED7222"/>
</svg>
