<svg width="24" height="24" viewBox="0 0 24 24" fill="none" xmlns="http://www.w3.org/2000/svg">
<g clip-path="url(#clip0_449_32261)">
<g clip-path="url(#clip1_449_32261)">
<path d="M24 3.253C23.9818 4.4821 23.8727 5.70807 23.6736 6.92054C23.6304 7.20829 23.5776 7.49116 23.5248 7.76915C22.3664 6.93976 21.1241 6.23837 19.8192 5.67689C18.6422 5.16742 17.4187 4.77699 16.1664 4.51128C16.0875 4.48985 16.0073 4.47356 15.9264 4.46251C14.6622 4.20355 13.376 4.07124 12.0864 4.06747H11.9712C10.6816 4.07124 9.39541 4.20355 8.1312 4.46251C8.05026 4.47356 7.9701 4.48985 7.8912 4.51128C6.63888 4.77699 5.41537 5.16742 4.2384 5.67689C2.91518 6.23493 1.65509 6.93641 0.48 7.76915C0.4272 7.49116 0.3744 7.20829 0.3312 6.92054C0.130492 5.70819 0.0197795 4.48222 0 3.253C1.19826 2.54789 2.45411 1.94905 3.7536 1.46312L4.0464 1.35582C5.21175 0.937102 6.40734 0.610984 7.6224 0.38041C7.8096 0.341394 8.0016 0.312132 8.1936 0.282869C9.34034 0.101731 10.4987 0.00718229 11.6592 0L12.3312 0C13.4922 0.0136361 14.6505 0.114706 15.7968 0.302378C15.9888 0.33164 16.1808 0.360902 16.368 0.399919C17.5831 0.630492 18.7787 0.95661 19.944 1.37533L20.2368 1.48263C21.5389 1.96177 22.798 2.55409 24 3.253V3.253Z" fill="#5757FF"/>
<path d="M18.8449 9.69067C18.4412 10.8437 17.9351 11.957 17.3329 13.0168L17.1313 13.3631C15.8554 12.7488 14.4819 12.3706 13.0753 12.2463C12.7181 12.2089 12.3592 12.191 12.0001 12.1926C11.6401 12.1926 11.2801 12.1926 10.9249 12.2414C9.51637 12.3667 8.14118 12.7465 6.8641 13.3631C7.48645 14.412 8.20139 15.4013 9.0001 16.3186C9.1153 16.4552 9.2353 16.5868 9.3553 16.7185C10.1639 17.6095 11.049 18.4256 12.0001 19.157C13.1428 20.0276 14.3738 20.7715 15.6721 21.3761C15.4849 21.537 15.3025 21.6931 15.1105 21.8638C14.1315 22.6591 13.0914 23.3734 12.0001 24C10.9077 23.3625 9.86751 22.6367 8.8897 21.8297C8.6977 21.6736 8.5153 21.5175 8.3281 21.342C7.50072 20.6215 6.7214 19.846 5.9953 19.0205C5.7649 18.7571 5.5153 18.4889 5.3233 18.2158C4.68823 17.4194 4.10461 16.582 3.5761 15.709C3.3697 15.3773 3.1729 15.0359 2.9857 14.6897C2.50373 13.8035 2.07573 12.8882 1.7041 11.9488C3.78551 10.1689 6.28072 8.95998 8.9521 8.43727C9.56417 8.31527 10.1829 8.23058 10.8049 8.18366C11.1985 8.1544 11.5969 8.13977 11.9953 8.13977C12.3937 8.13977 12.7921 8.13977 13.1857 8.18366C15.1471 8.33563 17.0649 8.84962 18.8449 9.70043V9.69067Z" fill="#5757FF"/>
</g>
</g>
<defs>
<clipPath id="clip0_449_32261">
<rect width="24" height="24" fill="white"/>
</clipPath>
<clipPath id="clip1_449_32261">
<rect width="24" height="24" fill="white"/>
</clipPath>
</defs>
</svg>
