<svg width="101" height="16" viewBox="0 0 101 16" fill="none" xmlns="http://www.w3.org/2000/svg">
<path d="M11.6145 11.0859C11.6145 9.78906 10.9036 8.67969 9.48172 7.75781C9.27859 7.64844 8.45828 7.21094 7.02078 6.44531C5.70828 5.75781 4.88797 5.07812 4.55984 4.40625C4.40359 4.07812 4.32547 3.73438 4.32547 3.375C4.32547 2.45312 4.77078 1.84375 5.66141 1.54688C5.95828 1.45312 6.27078 1.40625 6.59891 1.40625C7.88016 1.40625 8.84109 1.89062 9.48172 2.85938C9.87234 3.46875 10.0755 4.19531 10.0911 5.03906H11.0052V0.796875C10.5677 0.796875 10.3098 0.945313 10.2317 1.24219C10.2161 1.35156 10.2083 1.47656 10.2083 1.61719C8.91141 1.00781 7.54422 0.703125 6.10672 0.703125C4.21609 0.703125 2.79422 1.19531 1.84109 2.17969C1.23172 2.82031 0.927032 3.57812 0.927032 4.45312C0.927032 5.75 1.66922 6.85938 3.15359 7.78125C3.34109 7.90625 4.18484 8.35156 5.68484 9.11719C7.02859 9.82031 7.86453 10.5 8.19266 11.1562C8.33328 11.4688 8.40359 11.7891 8.40359 12.1172C8.40359 13.2422 7.90359 13.9922 6.90359 14.3672C6.54422 14.4922 6.14578 14.5547 5.70828 14.5547C4.05203 14.5547 2.88797 13.7969 2.21609 12.2812C1.93484 11.6406 1.76297 10.9062 1.70047 10.0781H0.786407V15.0469C1.20828 15.0469 1.45828 14.9219 1.53641 14.6719C1.56766 14.5156 1.58328 14.3047 1.58328 14.0391C2.78641 14.8359 4.23953 15.2344 5.94266 15.2344C7.92703 15.2344 9.45047 14.7266 10.513 13.7109C11.2473 12.9922 11.6145 12.1172 11.6145 11.0859ZM25.8195 15C25.8195 14.625 25.718 14.4219 25.5148 14.3906C25.4367 14.375 25.3508 14.3672 25.257 14.3672H24.5539L19.0227 0.9375H17.2883L12.1555 14.3672H10.6555V15H14.968C14.968 14.625 14.8664 14.4219 14.6633 14.3906C14.5852 14.375 14.4992 14.3672 14.4055 14.3672H13.093L14.7805 9.86719H19.4445L21.2023 14.3672H19.5383V15H25.8195ZM19.1633 9.16406H15.0617L17.0773 3.77344L19.1633 9.16406ZM34.6105 1.57031H36.4855V10.6406L28.212 0.9375H24.2511V1.57031H26.1261V14.3672H24.2511V15H29.1027C29.0089 14.6094 28.798 14.3984 28.4698 14.3672H27.1105V4.59375L36.1339 15.1172L37.4698 14.8828V1.57031H39.3448V0.9375H34.6105V1.57031ZM38.0108 0.9375V1.57031H39.8858V14.3672H38.0108V15H44.9952C47.167 15 48.9561 14.3438 50.3623 13.0312C51.7373 11.7344 52.4248 10.0625 52.4248 8.01562C52.4248 5.40625 51.4405 3.46094 49.4717 2.17969C48.1748 1.35156 46.6592 0.9375 44.9248 0.9375H38.0108ZM44.9952 1.57031C46.6358 1.57031 47.7295 2.375 48.2764 3.98438C48.5889 4.96875 48.7452 6.27344 48.7452 7.89844C48.7452 11.1484 48.0967 13.1562 46.7998 13.9219C46.2998 14.2188 45.6827 14.3672 44.9483 14.3672H43.167V1.57031H44.9952ZM58.8252 15V14.3672H56.9502V8.57812H58.0986L61.5908 15.0234L65.7158 15C65.7158 14.6562 65.5908 14.4609 65.3408 14.4141C65.2627 14.3984 65.1845 14.3906 65.1064 14.3906H64.8017L61.1923 8.29688C62.833 7.84375 63.8408 6.95312 64.2158 5.625C64.3095 5.29688 64.3564 4.96094 64.3564 4.61719C64.3564 3.46094 63.8408 2.53125 62.8095 1.82812C61.9345 1.23437 60.872 0.9375 59.622 0.9375H51.7939V1.57031H53.6689V14.3672H51.7939V15H58.8252ZM58.2158 1.57031C59.497 1.57031 60.3252 2.20312 60.7002 3.46875C60.8095 3.875 60.8642 4.29688 60.8642 4.73438C60.8642 6.07812 60.458 7.00781 59.6455 7.52344C59.2861 7.75781 58.872 7.875 58.4033 7.875H56.9502V1.57031H58.2158ZM76.077 5.4375L75.9833 0.9375H64.2645V1.57031H66.1395V14.3672H64.2645V15H75.9833L76.077 10.5H75.3973L74.8583 12.1172C74.452 13.3203 73.8036 14.0391 72.913 14.2734C72.6473 14.3359 72.3661 14.3672 72.0692 14.3672H69.4208V8.10938H73.9208V7.40625H69.4208V1.57031H72.0692C73.3505 1.57031 74.2333 2.17969 74.7177 3.39844C74.7802 3.53906 74.8348 3.67969 74.8817 3.82031L75.3973 5.4375H76.077ZM87.1648 15L87.2586 9.91406H86.5789L85.8992 12.1172C85.5711 13.1641 85.1023 13.8359 84.493 14.1328C84.1336 14.2891 83.7195 14.3672 83.2508 14.3672H80.8367V1.57031H82.8289V0.9375H75.6805V1.57031H77.5555V14.3672H75.6805V15H87.1648ZM100.503 15C100.503 14.625 100.401 14.4219 100.198 14.3906C100.12 14.375 100.034 14.3672 99.9402 14.3672H99.237L93.7058 0.9375H91.9714L86.8386 14.3672H85.3386V15H89.6511C89.6511 14.625 89.5495 14.4219 89.3464 14.3906C89.2683 14.375 89.1823 14.3672 89.0886 14.3672H87.7761L89.4636 9.86719H94.1277L95.8855 14.3672H94.2214V15H100.503ZM93.8464 9.16406H89.7448L91.7605 3.77344L93.8464 9.16406Z" fill="#686868"/>
</svg>
