<svg width="34" height="24" viewBox="0 0 34 24" fill="none" xmlns="http://www.w3.org/2000/svg">
<rect x="0.5" y="0.5" width="33" height="23" rx="3.5" fill="white"/>
<path fill-rule="evenodd" clip-rule="evenodd" d="M14.614 18.4473L14.8347 16.9982L14.3431 16.9863H11.9951L13.6268 6.29272C13.6319 6.26034 13.6484 6.23028 13.6724 6.2089C13.6965 6.18751 13.7272 6.17578 13.7594 6.17578H17.7184C19.0328 6.17578 19.9398 6.45842 20.4133 7.01636C20.6353 7.2781 20.7767 7.55169 20.8452 7.85266C20.9169 8.16853 20.9181 8.54587 20.8481 9.00618L20.843 9.03966V9.33464L21.0651 9.46465C21.252 9.56717 21.4006 9.68448 21.5145 9.81877C21.7044 10.0426 21.8272 10.3271 21.8791 10.6642C21.9328 11.011 21.9151 11.4238 21.8272 11.8911C21.7259 12.4285 21.5622 12.8966 21.341 13.2796C21.1376 13.6325 20.8785 13.9252 20.5708 14.152C20.277 14.3676 19.928 14.5312 19.5333 14.6359C19.1509 14.7388 18.7149 14.7908 18.2367 14.7908H17.9286C17.7083 14.7908 17.4943 14.8727 17.3263 15.0197C17.1579 15.1698 17.0465 15.3748 17.0123 15.5991L16.989 15.7296L16.599 18.2838L16.5814 18.3775C16.5767 18.4072 16.5686 18.422 16.5568 18.432C16.5463 18.4412 16.5311 18.4473 16.5164 18.4473H14.614Z" fill="#28356A"/>
<path fill-rule="evenodd" clip-rule="evenodd" d="M21.2761 9.07422C21.2644 9.1523 21.2508 9.23209 21.2356 9.31409C20.7136 12.0847 18.9273 13.0419 16.646 13.0419H15.4845C15.2055 13.0419 14.9703 13.2512 14.9269 13.5357L14.1638 18.5389C14.1356 18.7258 14.2748 18.894 14.4571 18.894H16.5173C16.7612 18.894 16.9684 18.7109 17.0069 18.4622L17.0271 18.354L17.415 15.8098L17.4399 15.6703C17.4779 15.4208 17.6856 15.2375 17.9295 15.2375H18.2376C20.2336 15.2375 21.7961 14.4 22.2528 11.9761C22.4435 10.9636 22.3448 10.1181 21.84 9.52353C21.6873 9.34427 21.4977 9.19544 21.2761 9.07422Z" fill="#298FC2"/>
<path fill-rule="evenodd" clip-rule="evenodd" d="M20.7298 8.84993C20.65 8.82586 20.5677 8.80411 20.4833 8.78443C20.3984 8.76525 20.3115 8.74826 20.222 8.73335C19.9089 8.68106 19.5656 8.65625 19.1981 8.65625H16.0951C16.0186 8.65625 15.946 8.67409 15.8811 8.70635C15.7379 8.77747 15.6316 8.9175 15.6058 9.08894L14.9457 13.4105L14.9268 13.5365C14.9701 13.252 15.2053 13.0427 15.4843 13.0427H16.6459C18.9271 13.0427 20.7134 12.085 21.2354 9.31488C21.2511 9.23289 21.2642 9.15309 21.2759 9.07501C21.1438 9.00255 21.0008 8.9406 20.8467 8.88781C20.8087 8.87473 20.7694 8.86215 20.7298 8.84993Z" fill="#22284F"/>
<path fill-rule="evenodd" clip-rule="evenodd" d="M15.6056 9.08911C15.6314 8.91767 15.7377 8.77764 15.8809 8.70701C15.9462 8.67463 16.0184 8.65679 16.0948 8.65679H19.1979C19.5654 8.65679 19.9086 8.68171 20.2218 8.73401C20.3113 8.7488 20.3982 8.76591 20.4831 8.78509C20.5675 8.80464 20.6498 8.82651 20.7296 8.85046C20.7692 8.86268 20.8085 8.87539 20.8469 8.88798C21.0009 8.94077 21.1441 9.00321 21.2761 9.07518C21.4315 8.05131 21.2748 7.35419 20.7393 6.72293C20.1488 6.02789 19.0831 5.73047 17.7194 5.73047H13.7603C13.4817 5.73047 13.2441 5.93979 13.2011 6.22475L11.5521 17.0283C11.5196 17.2421 11.679 17.4349 11.8876 17.4349H14.3318L15.6056 9.08911Z" fill="#28356A"/>
<rect x="0.5" y="0.5" width="33" height="23" rx="3.5" stroke="#BABFCD"/>
</svg>
