<svg width="40" height="40" viewBox="0 0 40 40" fill="none" xmlns="http://www.w3.org/2000/svg">
<path d="M27 16H26V11H14V16H13C11.34 16 10 17.34 10 19V25H14V29H26V25H30V19C30 17.34 28.66 16 27 16ZM16 13H24V16H16V13ZM24 27H16V23H24V27ZM26 23V21H14V23H12V19C12 18.45 12.45 18 13 18H27C27.55 18 28 18.45 28 19V23H26Z" fill="#686868"/>
<path d="M26 20.5C26.5523 20.5 27 20.0523 27 19.5C27 18.9477 26.5523 18.5 26 18.5C25.4477 18.5 25 18.9477 25 19.5C25 20.0523 25.4477 20.5 26 20.5Z" fill="#686868"/>
<rect x="0.5" y="0.5" width="39" height="39" stroke="#F7F7F7"/>
</svg>
