<svg width="64" height="64" viewBox="0 0 64 64" fill="none" xmlns="http://www.w3.org/2000/svg">
<path d="M44.9201 38.0133H42.8134L42.0668 37.2933C44.6801 34.2533 46.2534 30.3066 46.2534 26.0133C46.2534 16.4399 38.4934 8.67993 28.9201 8.67993C19.8001 8.67993 12.3334 15.7199 11.6668 24.6799H17.0534C17.7201 18.6799 22.7334 14.0133 28.9201 14.0133C35.5601 14.0133 40.9201 19.3733 40.9201 26.0133C40.9201 32.6533 35.5601 38.0133 28.9201 38.0133C28.4668 38.0133 28.0401 37.9333 27.5868 37.8799V43.2666C28.0401 43.3199 28.4668 43.3466 28.9201 43.3466C33.2134 43.3466 37.1601 41.7733 40.2001 39.1599L40.9201 39.9066V42.0133L54.2534 55.3199L58.2268 51.3466L44.9201 38.0133Z" fill="#ED7222"/>
<path d="M20.8401 29.5333L14.2534 36.1199L7.66677 29.5333L5.77344 31.4266L12.3601 38.0133L5.77344 44.5999L7.66677 46.4933L14.2534 39.9066L20.8401 46.4933L22.7334 44.5999L16.1468 38.0133L22.7334 31.4266L20.8401 29.5333Z" fill="#ED7222"/>
</svg>
