<svg width="24" height="24" viewBox="0 0 24 24" fill="none" xmlns="http://www.w3.org/2000/svg">
<path fill-rule="evenodd" clip-rule="evenodd" d="M11.7674 3.77783C7.35541 3.77783 3.77881 7.35443 3.77881 11.7664C3.77881 16.1784 7.35541 19.7549 11.7674 19.7549C16.1793 19.7549 19.7559 16.1784 19.7559 11.7664C19.7559 7.35443 16.1793 3.77783 11.7674 3.77783ZM1.77881 11.7664C1.77881 6.24986 6.25084 1.77783 11.7674 1.77783C17.2839 1.77783 21.7559 6.24986 21.7559 11.7664C21.7559 17.2829 17.2839 21.7549 11.7674 21.7549C6.25084 21.7549 1.77881 17.2829 1.77881 11.7664Z" fill="#686868"/>
<path fill-rule="evenodd" clip-rule="evenodd" d="M17.3111 17.7787C17.7011 17.3877 18.3342 17.3869 18.7253 17.7769L22.2493 21.2918C22.6403 21.6818 22.6412 22.315 22.2511 22.706C21.8611 23.097 21.228 23.0978 20.8369 22.7078L17.3129 19.193C16.9219 18.8029 16.921 18.1698 17.3111 17.7787Z" fill="#686868"/>
</svg>
