<svg width="24" height="24" viewBox="0 0 24 24" fill="none" xmlns="http://www.w3.org/2000/svg">
<path fill-rule="evenodd" clip-rule="evenodd" d="M11.7674 3.77795C7.35541 3.77795 3.77881 7.35455 3.77881 11.7665C3.77881 16.1785 7.35541 19.7551 11.7674 19.7551C16.1793 19.7551 19.7559 16.1785 19.7559 11.7665C19.7559 7.35455 16.1793 3.77795 11.7674 3.77795ZM1.77881 11.7665C1.77881 6.24998 6.25084 1.77795 11.7674 1.77795C17.2839 1.77795 21.7559 6.24998 21.7559 11.7665C21.7559 17.283 17.2839 21.7551 11.7674 21.7551C6.25084 21.7551 1.77881 17.283 1.77881 11.7665Z" fill="#A4A4A4"/>
<path fill-rule="evenodd" clip-rule="evenodd" d="M17.3111 17.7789C17.7011 17.3878 18.3342 17.387 18.7253 17.777L22.2493 21.2919C22.6403 21.6819 22.6412 22.3151 22.2511 22.7061C21.8611 23.0971 21.228 23.098 20.8369 22.7079L17.3129 19.1931C16.9219 18.8031 16.921 18.1699 17.3111 17.7789Z" fill="#A4A4A4"/>
</svg>
