<svg width="40" height="40" viewBox="0 0 40 40" fill="none" xmlns="http://www.w3.org/2000/svg">
<path d="M31.667 0H8.33366C6.03366 0 4.16699 1.86667 4.16699 4.16667V35.8333C4.16699 38.1333 6.03366 40 8.33366 40H31.667C33.967 40 35.8337 38.1333 35.8337 35.8333V4.16667C35.8337 1.86667 33.967 0 31.667 0ZM20.0003 38.3333C18.617 38.3333 17.5003 37.2167 17.5003 35.8333C17.5003 34.45 18.617 33.3333 20.0003 33.3333C21.3837 33.3333 22.5003 34.45 22.5003 35.8333C22.5003 37.2167 21.3837 38.3333 20.0003 38.3333ZM32.5003 31.6667H7.50033V5H32.5003V31.6667Z" fill="#686868"/>
</svg>
